<svg width="286" height="46" viewBox="0 0 286 46" fill="none" xmlns="http://www.w3.org/2000/svg">
<path d="M11.0043 1.36364L21.5511 34.517H21.956L32.5241 1.36364H42.7514L27.7088 45H15.8196L0.755682 1.36364H11.0043ZM49.7241 45H39.8377L54.9016 1.36364H66.7908L81.8335 45H71.9471L61.0167 11.3352H60.6758L49.7241 45ZM49.1062 27.848H72.4585V35.0497H49.1062V27.848ZM123.584 1.36364V45H115.615L96.631 17.5355H96.3114V45H87.0856V1.36364H95.1822L114.017 28.8068H114.401V1.36364H123.584ZM131.207 45V1.36364H160.61V8.97017H140.433V19.3679H159.097V26.9744H140.433V37.3935H160.695V45H131.207ZM191.617 13.9134C191.446 12.1946 190.715 10.8594 189.422 9.90767C188.13 8.95596 186.375 8.48011 184.159 8.48011C182.654 8.48011 181.382 8.69318 180.346 9.11932C179.309 9.53125 178.513 10.1065 177.959 10.8452C177.419 11.5838 177.15 12.4219 177.15 13.3594C177.121 14.1406 177.284 14.8224 177.64 15.4048C178.009 15.9872 178.513 16.4915 179.152 16.9176C179.792 17.3295 180.53 17.6918 181.368 18.0043C182.206 18.3026 183.101 18.5582 184.053 18.7713L187.973 19.7088C189.877 20.1349 191.624 20.7031 193.215 21.4134C194.806 22.1236 196.184 22.9972 197.348 24.0341C198.513 25.071 199.415 26.2926 200.054 27.6989C200.708 29.1051 201.042 30.7173 201.056 32.5355C201.042 35.206 200.36 37.5213 199.01 39.4815C197.675 41.4276 195.743 42.9403 193.215 44.0199C190.701 45.0852 187.668 45.6179 184.117 45.6179C180.594 45.6179 177.526 45.0781 174.912 43.9986C172.313 42.919 170.282 41.321 168.819 39.2045C167.37 37.0739 166.61 34.4389 166.539 31.2997H175.466C175.566 32.7628 175.985 33.9844 176.723 34.9645C177.476 35.9304 178.478 36.6619 179.728 37.1591C180.992 37.642 182.419 37.8835 184.01 37.8835C185.573 37.8835 186.929 37.6562 188.08 37.2017C189.245 36.7472 190.147 36.1151 190.786 35.3054C191.425 34.4957 191.745 33.5653 191.745 32.5142C191.745 31.5341 191.453 30.7102 190.871 30.0426C190.303 29.375 189.465 28.8068 188.357 28.3381C187.263 27.8693 185.921 27.4432 184.33 27.0597L179.578 25.8665C175.9 24.9716 172.995 23.5724 170.864 21.669C168.733 19.7656 167.675 17.2017 167.689 13.9773C167.675 11.3352 168.378 9.02699 169.799 7.05256C171.233 5.07812 173.201 3.53693 175.701 2.42898C178.201 1.32102 181.042 0.767044 184.223 0.767044C187.462 0.767044 190.289 1.32102 192.703 2.42898C195.132 3.53693 197.022 5.07812 198.371 7.05256C199.721 9.02699 200.417 11.3139 200.459 13.9134H191.617ZM230.933 13.9134C230.763 12.1946 230.031 10.8594 228.739 9.90767C227.446 8.95596 225.692 8.48011 223.476 8.48011C221.97 8.48011 220.699 8.69318 219.662 9.11932C218.625 9.53125 217.83 10.1065 217.276 10.8452C216.736 11.5838 216.466 12.4219 216.466 13.3594C216.438 14.1406 216.601 14.8224 216.956 15.4048C217.325 15.9872 217.83 16.4915 218.469 16.9176C219.108 17.3295 219.847 17.6918 220.685 18.0043C221.523 18.3026 222.418 18.5582 223.369 18.7713L227.29 19.7088C229.193 20.1349 230.94 20.7031 232.531 21.4134C234.122 22.1236 235.5 22.9972 236.665 24.0341C237.83 25.071 238.732 26.2926 239.371 27.6989C240.024 29.1051 240.358 30.7173 240.372 32.5355C240.358 35.206 239.676 37.5213 238.327 39.4815C236.991 41.4276 235.06 42.9403 232.531 44.0199C230.017 45.0852 226.984 45.6179 223.433 45.6179C219.911 45.6179 216.842 45.0781 214.229 43.9986C211.629 42.919 209.598 41.321 208.135 39.2045C206.686 37.0739 205.926 34.4389 205.855 31.2997H214.783C214.882 32.7628 215.301 33.9844 216.04 34.9645C216.793 35.9304 217.794 36.6619 219.044 37.1591C220.308 37.642 221.736 37.8835 223.327 37.8835C224.889 37.8835 226.246 37.6562 227.396 37.2017C228.561 36.7472 229.463 36.1151 230.102 35.3054C230.741 34.4957 231.061 33.5653 231.061 32.5142C231.061 31.5341 230.77 30.7102 230.188 30.0426C229.619 29.375 228.781 28.8068 227.673 28.3381C226.58 27.8693 225.237 27.4432 223.646 27.0597L218.895 25.8665C215.216 24.9716 212.311 23.5724 210.18 21.669C208.05 19.7656 206.991 17.2017 207.006 13.9773C206.991 11.3352 207.695 9.02699 209.115 7.05256C210.55 5.07812 212.517 3.53693 215.017 2.42898C217.517 1.32102 220.358 0.767044 223.54 0.767044C226.778 0.767044 229.605 1.32102 232.02 2.42898C234.449 3.53693 236.338 5.07812 237.688 7.05256C239.037 9.02699 239.733 11.3139 239.776 13.9134H230.933ZM253.103 45H243.217L258.281 1.36364H270.17L285.212 45H275.326L264.396 11.3352H264.055L253.103 45ZM252.485 27.848H275.837V35.0497H252.485V27.848Z" fill="#6A5ACD"/>
</svg>
